<?xml version="1.0" encoding="iso-8859-1"?>
<svg height="800px" width="800px" version="1.1" id="Layer_1" xmlns="http://www.w3.org/2000/svg" xmlns:xlink="http://www.w3.org/1999/xlink" 
	viewBox="0 0 511.998 571.998" xml:space="preserve">
<path style="fill:#007bff;" d="M271.44,308.729H183.3V69.214c0-17.121-13.88-31.001-31.001-31.001s-31.001,13.88-31.001,31.001
	v239.515H33.157c-12.679,0-22.957,10.279-22.957,22.957c0,6.089,2.418,11.928,6.724,16.233l119.141,119.142
	c4.483,4.483,10.358,6.724,16.233,6.724c5.875,0,11.751-2.242,16.233-6.724l119.142-119.142c4.305-4.305,6.724-10.144,6.724-16.233
	C294.397,319.008,284.119,308.729,271.44,308.729z"/>
<g>
	<path style="fill:#fff;" d="M228.462,374.31c-2.611,0-5.22-0.996-7.212-2.987c-3.983-3.983-3.983-10.441,0-14.425l2.008-2.008
		c3.984-3.982,10.44-3.982,14.425,0c3.983,3.983,3.983,10.441,0,14.425l-2.008,2.008C233.682,373.313,231.073,374.31,228.462,374.31
		z"/>
	<path style="fill:#fff;" d="M154.008,448.764c-2.611,0-5.22-0.996-7.212-2.987c-3.983-3.983-3.983-10.441,0-14.425
		l52.867-52.867c3.984-3.982,10.44-3.982,14.425,0c3.983,3.983,3.983,10.441,0,14.425l-52.867,52.867
		C159.228,447.767,156.619,448.764,154.008,448.764z"/>
</g>
<path style="fill:#007bff;" transform="translate(50,0)" d="M240.56,203.269H328.7v239.515c0,17.121,13.88,31.001,31.001,31.001
	c17.121,0,31.001-13.88,31.001-31.001V203.269h88.139c12.679,0,22.957-10.279,22.957-22.957c0-6.089-2.418-11.928-6.724-16.233
	L375.935,44.937c-4.483-4.483-10.358-6.724-16.233-6.724s-11.75,2.242-16.233,6.724L224.326,164.078
	c-4.305,4.305-6.724,10.144-6.724,16.233C217.603,192.99,227.881,203.269,240.56,203.269z"/>
</svg>