<?xml version="1.0" encoding="UTF-8" standalone="no"?>
<!DOCTYPE svg PUBLIC "-//W3C//DTD SVG 1.1//EN" "http://www.w3.org/Graphics/SVG/1.1/DTD/svg11.dtd">
<svg width="100%" height="100%" viewBox="0 0 800 800" version="1.1" xmlns="http://www.w3.org/2000/svg" xmlns:xlink="http://www.w3.org/1999/xlink" xml:space="preserve" xmlns:serif="http://www.serif.com/" style="fill-rule:evenodd;clip-rule:evenodd;stroke-linejoin:round;stroke-miterlimit:2;">
    <g transform="matrix(1,0,0,1,-34.9652,41.9582)">
        <path d="M421.596,431.79L298.323,431.79L298.323,96.803C298.323,72.858 278.91,53.445 254.965,53.445C231.019,53.445 211.606,72.858 211.606,96.803L211.606,431.79L88.332,431.79C70.599,431.79 56.224,446.167 56.224,463.898C56.224,472.414 59.606,480.581 65.628,486.602L232.26,653.234C238.53,659.504 246.746,662.639 254.963,662.639C263.18,662.639 271.398,659.503 277.667,653.234L444.299,486.602C450.32,480.581 453.704,472.414 453.704,463.898C453.704,446.167 439.329,431.79 421.596,431.79Z" style="fill:rgb(0,123,255);fill-rule:nonzero;"/>
    </g>
    <g>
        <g transform="matrix(1,0,0,1,-34.9652,41.9582)">
            <path d="M361.487,523.512C357.835,523.512 354.186,522.119 351.4,519.335C345.829,513.764 345.829,504.732 351.4,499.16L354.208,496.351C359.78,490.782 368.81,490.782 374.383,496.351C379.954,501.922 379.954,510.954 374.383,516.526L371.575,519.335C368.787,522.118 365.138,523.512 361.487,523.512Z" style="fill:white;fill-rule:nonzero;"/>
        </g>
        <g transform="matrix(1,0,0,1,-34.9652,41.9582)">
            <path d="M257.355,627.644C253.703,627.644 250.054,626.251 247.268,623.467C241.697,617.896 241.697,608.864 247.268,603.292L321.208,529.352C326.78,523.782 335.81,523.782 341.383,529.352C346.954,534.922 346.954,543.954 341.383,549.526L267.443,623.467C264.655,626.25 261.007,627.644 257.355,627.644Z" style="fill:white;fill-rule:nonzero;"/>
        </g>
    </g>
    <g transform="matrix(1,0,0,1,34.9652,41.9582)">
        <path d="M378.407,284.293L501.68,284.293L501.68,619.28C501.68,643.226 521.093,662.639 545.038,662.639C568.984,662.639 588.396,643.226 588.396,619.28L588.396,284.293L711.668,284.293C729.401,284.293 743.776,269.917 743.776,252.185C743.776,243.669 740.394,235.503 734.372,229.482L567.743,62.849C561.473,56.579 553.256,53.445 545.04,53.445C536.823,53.445 528.606,56.581 522.336,62.849L355.702,229.481C349.681,235.502 346.298,243.668 346.298,252.184C346.299,269.917 360.674,284.293 378.407,284.293Z" style="fill:rgb(0,123,255);fill-rule:nonzero;"/>
    </g>
</svg>
