<?xml version="1.0" standalone="no"?>
<!DOCTYPE svg PUBLIC "-//W3C//DTD SVG 20010904//EN"
 "http://www.w3.org/TR/2001/REC-SVG-20010904/DTD/svg10.dtd">
<svg version="1.0" xmlns="http://www.w3.org/2000/svg"
 width="700.000000pt" height="700.000000pt" viewBox="0 0 700.000000 700.000000"
 preserveAspectRatio="xMidYMid meet">
<metadata>
Created by potrace 1.14, written by Peter Selinger 2001-2017
</metadata>
<g transform="translate(0.000000,700.000000) scale(0.100000,-0.100000)"
fill="#000000" stroke="none">
<path d="M360 6767 c-49 -16 -116 -86 -130 -136 -8 -30 -11 -883 -11 -3034 0
-2697 2 -2998 16 -3052 43 -163 183 -292 346 -319 19 -3 1379 -6 3023 -6 2336
0 2998 3 3030 12 23 7 59 30 81 53 108 108 75 288 -65 352 -32 15 -306 16
-3007 17 -1635 1 -2975 5 -2980 9 -4 4 -7 1345 -8 2980 0 2798 -1 2974 -18
3007 -52 106 -163 153 -277 117z"/>
<path d="M5413 5674 c-174 -36 -323 -180 -369 -355 -16 -59 -17 -210 -17
-1934 0 -1756 1 -1874 17 -1930 49 -166 175 -290 351 -346 58 -19 686 -20 773
-2 189 39 331 181 376 373 10 44 13 436 11 1930 -1 1197 -6 1888 -12 1910 -44
156 -166 285 -323 343 -51 19 -81 20 -400 22 -254 2 -361 -1 -407 -11z"/>
<path d="M3535 4809 c-95 -6 -143 -19 -213 -57 -125 -67 -219 -192 -246 -325
-10 -48 -13 -369 -13 -1476 0 -778 4 -1435 9 -1460 13 -69 69 -180 121 -237
54 -60 145 -117 225 -141 49 -14 107 -17 399 -18 254 -1 356 2 395 12 79 20
168 67 220 116 51 48 128 161 128 187 0 9 3 20 7 24 4 3 8 12 9 19 2 7 6 26
10 42 3 17 7 666 8 1444 1 1137 -2 1427 -12 1480 -27 134 -133 276 -251 335
-102 52 -142 58 -434 59 -150 1 -312 -1 -362 -4z"/>
<path d="M1525 4152 c-194 -30 -352 -164 -411 -347 -18 -57 -19 -106 -20
-1155 0 -788 3 -1112 11 -1157 33 -178 178 -334 355 -384 66 -18 692 -20 779
-2 190 40 348 205 378 398 4 22 7 533 7 1135 l0 1095 -22 71 c-50 163 -189
296 -349 335 -43 11 -670 21 -728 11z"/>
</g>
</svg>
