<?xml version="1.0" standalone="no"?>
<!DOCTYPE svg PUBLIC "-//W3C//DTD SVG 20010904//EN"
 "http://www.w3.org/TR/2001/REC-SVG-20010904/DTD/svg10.dtd">
<svg version="1.0" xmlns="http://www.w3.org/2000/svg"
 width="700.000000pt" height="700.000000pt" viewBox="0 0 700.000000 700.000000"
 preserveAspectRatio="xMidYMid meet">
<metadata>
Created by potrace 1.14, written by Peter Selinger 2001-2017
</metadata>
<g transform="translate(0.000000,700.000000) scale(0.100000,-0.100000)"
fill="#000000" stroke="none">
<path d="M1867 6158 c-117 -15 -232 -102 -285 -216 l-27 -57 -5 -1515 -5
-1515 -585 -5 -585 -5 -47 -27 c-97 -58 -144 -150 -136 -269 4 -48 12 -80 31
-111 14 -24 367 -384 784 -800 832 -831 795 -799 918 -799 123 0 86 -32 918
799 417 416 770 776 784 800 19 31 27 63 31 111 8 119 -39 211 -136 269 l-47
27 -585 5 -585 5 -5 1515 -5 1515 -27 57 c-72 154 -228 238 -401 216z m1083
-3857 c14 -9 33 -34 43 -54 15 -30 16 -43 7 -75 -13 -50 -75 -108 -124 -118
-77 -14 -156 65 -142 142 4 19 23 53 43 75 54 60 116 71 173 30z m-287 -286
c37 -24 60 -79 52 -123 -5 -32 -55 -86 -353 -384 -190 -191 -358 -352 -374
-359 -35 -14 -88 -5 -122 22 -31 24 -51 86 -42 126 9 34 674 707 721 729 35
17 83 12 118 -11z"/>
<path d="M5027 6159 c-26 -4 -67 -19 -90 -33 -55 -33 -1550 -1531 -1573 -1576
-9 -19 -19 -65 -22 -101 -8 -117 39 -209 136 -267 l47 -27 585 -5 585 -5 5
-1515 5 -1515 27 -57 c137 -292 549 -292 686 0 l27 57 5 1515 5 1515 585 5
585 5 47 27 c97 58 144 150 136 267 -3 36 -13 82 -22 101 -23 45 -1518 1543
-1573 1576 -50 30 -121 42 -186 33z"/>
</g>
</svg>
